<?xml version="1.0" encoding="UTF-8" standalone="no"?>
<!-- Created with Inkscape (http://www.inkscape.org/) -->

<svg
   width="65.705902"
   height="191.63469"
   viewBox="0 0 65.705 191.63206"
   version="1.1"
   id="svg5"
   xml:space="preserve"
   inkscape:version="1.2.1 (9c6d41e410, 2022-07-14)"
   sodipodi:docname="couverts.svg"
   xmlns:inkscape="http://www.inkscape.org/namespaces/inkscape"
   xmlns:sodipodi="http://sodipodi.sourceforge.net/DTD/sodipodi-0.dtd"
   xmlns="http://www.w3.org/2000/svg"
   xmlns:svg="http://www.w3.org/2000/svg"><sodipodi:namedview
     id="namedview7"
     pagecolor="#ffffff"
     bordercolor="#000000"
     borderopacity="0.25"
     inkscape:showpageshadow="2"
     inkscape:pageopacity="0.0"
     inkscape:pagecheckerboard="0"
     inkscape:deskcolor="#d1d1d1"
     inkscape:document-units="px"
     showgrid="false"
     inkscape:zoom="3.659624"
     inkscape:cx="146.46313"
     inkscape:cy="97.551005"
     inkscape:window-width="3440"
     inkscape:window-height="1377"
     inkscape:window-x="-8"
     inkscape:window-y="-8"
     inkscape:window-maximized="1"
     inkscape:current-layer="layer1" /><defs
     id="defs2" /><g
     inkscape:label="Calque 1"
     inkscape:groupmode="layer"
     id="layer1"
     transform="translate(-6.9921233,22.219963)"><path
       style="fill:none;stroke:#000000;stroke-width:1.18741;stroke-opacity:1"
       d="m 18.080407,168.59417 c -2.068246,-0.48746 -4.245523,-2.0955 -5.0292,-3.71439 -0.730451,-1.50891 -0.566197,-4.49863 1.174185,-21.37248 0.22765,-2.20711 1.372887,-15.5168 1.57928,-18.35398 0.236628,-3.25272 0.566878,-10.59114 0.75478,-16.77178 0.07055,-2.32063 0.273103,-7.49456 0.450097,-11.497603 0.42817,-9.683694 0.630982,-37.215886 0.293074,-39.784755 C 16.978716,54.636847 16.334241,52.131244 15.65608,50.697707 15.339053,50.027579 14.433733,48.83397 13.493069,47.84595 10.326429,44.519844 9.2745667,42.839824 8.3076127,39.563852 7.199751,35.810493 7.380399,26.462195 8.7674518,15.767634 10.065809,5.7569514 12.120237,-5.5972153 12.751426,-6.2504819 c 0.331837,-0.3434466 0.701805,-0.1591137 0.940356,0.4682197 0.09513,0.2502587 0.04552,4.0621335 -0.110286,8.4708721 -0.540165,15.2846641 -0.935219,25.1104921 -1.061552,26.4030121 -0.120574,1.233507 -0.09905,1.317243 0.42702,1.661923 0.64001,0.419371 1.982627,0.304761 2.352295,-0.200671 0.135961,-0.185949 0.323429,-3.017592 0.471712,-7.124894 0.244987,-6.786055 0.838726,-15.823702 1.850013,-28.1603571 0.125018,-1.5251105 0.359158,-1.9015673 0.954085,-1.5339929 0.25076,0.1548386 0.313837,3.0501508 0.402808,18.486542 l 0.105464,18.302849 0.527415,0.266765 c 0.707467,0.357838 1.286462,0.340525 1.851744,-0.05534 l 0.468872,-0.328415 V 12.499665 c 0,-16.9107522 0.06315,-18.9955608 0.574941,-18.9854443 0.605986,0.011802 0.706443,0.5541644 1.115667,6.02155155 0.233992,3.12609715 0.519599,6.91795195 0.634708,8.42634405 0.474135,6.2131517 0.826492,12.5212257 0.960399,17.1937117 0.07813,2.726724 0.224444,5.116104 0.32512,5.309723 0.255087,0.490615 1.352983,0.689649 2.099177,0.380566 0.613033,-0.253916 0.618949,-0.272796 0.617562,-1.971245 -7.97e-4,-0.943184 -0.137971,-5.037592 -0.304915,-9.09868 C 27.787105,15.715103 27.550166,9.2121039 27.42751,5.3250662 27.304853,1.4380047 27.160071,-2.4801905 27.105754,-3.3820767 c -0.114469,-1.9008556 0.03477,-2.8842685 0.462569,-3.0484412 0.166546,-0.063879 0.430066,0.014279 0.585604,0.1764501 0.634707,0.6565902 2.695261,12.0000713 4.00034,22.0220108 1.304721,10.01928 1.536365,19.760515 0.556853,23.417195 -0.894651,3.33988 -2.049302,5.234132 -5.257393,8.624999 -2.020503,2.135606 -2.520783,3.090996 -3.372083,6.439733 l -0.568025,2.234447 0.0087,15.927908 c 0.0064,11.317192 0.112137,18.401191 0.365717,24.471996 0.196278,4.699249 0.410354,10.205469 0.475722,12.235989 0.190769,5.92634 0.506468,12.73591 0.743314,16.03342 0.31878,4.43831 1.865798,21.47284 2.423631,26.68714 0.784242,7.33065 0.93244,11.67196 0.437723,12.82294 -0.73094,1.70056 -2.764678,3.25535 -5.056222,3.8655 -1.204287,0.32068 -3.610378,0.35314 -4.831934,0.0653 z m 43.529679,-0.10622 c -1.990562,-0.53519 -3.860114,-1.94819 -4.720553,-3.56774 -0.525363,-0.9889 -0.577192,-2.9522 -0.192146,-7.27831 0.129039,-1.4504 0.380827,-4.29843 0.559398,-6.32897 0.178563,-2.03055 0.470127,-5.09943 0.647875,-6.81975 0.177756,-1.7203 0.462217,-4.80569 0.632128,-6.85638 0.169919,-2.0507 0.404064,-4.77282 0.520341,-6.04917 0.116348,-1.27632 0.326008,-3.60222 0.466085,-5.16866 0.316887,-3.54385 0.311389,-15.47009 -0.01166,-25.7378 C 59.37819,96.446032 59.212539,90.465161 59.14339,87.390361 58.930606,77.929923 58.626412,77.304823 53.291975,75.366612 c -1.177903,-0.427991 -2.44441,-0.935086 -2.814472,-1.126901 -1.373385,-0.711876 -1.3315,-0.395313 -1.329667,-10.049772 0.0029,-10.675253 0.312759,-24.480498 0.745647,-33.127416 0.177161,-3.538936 0.41235,-8.285659 0.522609,-10.548271 0.211168,-4.333718 0.227341,-4.554292 0.75002,-10.231827 0.893273,-9.70321421 2.644036,-17.4577683 5.05372,-22.384146 1.029064,-2.103856 2.76987,-4.438022 4.57323,-6.1321 1.244182,-1.168746 3.340484,-2.601192 3.806742,-2.601192 0.15643,0 0.378979,-0.09452 0.494576,-0.210171 0.295354,-0.295357 2.575077,-0.689886 3.151031,-0.54533 0.288379,0.07243 0.568578,0.378784 0.70545,0.77139 0.159398,0.457295 0.228101,14.6479265 0.230571,47.639953 l 0.0029,46.988636 -0.627435,0.853201 c -1.188207,1.615688 -1.330017,2.89187 -1.1916,10.723511 0.06768,3.829044 0.216584,9.097896 0.330917,11.708609 0.114323,2.610666 0.307649,7.689674 0.429584,11.286624 0.27259,8.04103 0.559124,13.71031 0.964992,19.09241 0.331609,4.39741 2.093503,23.52573 2.409552,26.15971 0.104488,0.87026 0.31009,3.31796 0.457052,5.43937 0.298208,4.30489 0.188061,5.19638 -0.823444,6.66416 -1.692225,2.45556 -5.997571,3.69908 -9.524244,2.75089 z"
       id="path184" /></g></svg>
