<?xml version="1.0" standalone="no"?>
<!DOCTYPE svg PUBLIC "-//W3C//DTD SVG 20010904//EN"
 "http://www.w3.org/TR/2001/REC-SVG-20010904/DTD/svg10.dtd">
<svg version="1.0" xmlns="http://www.w3.org/2000/svg"
 width="1184.000000pt" height="1184.000000pt" viewBox="0 0 1184.000000 1184.000000"
 preserveAspectRatio="xMidYMid meet">
<metadata>
Created by potrace 1.14, written by Peter Selinger 2001-2017
</metadata>
<g transform="translate(0.000000,1184.000000) scale(0.100000,-0.100000)"
fill="#000000" stroke="none">
<path d="M6618 10875 c-2 -2 -59 -6 -128 -9 -69 -4 -143 -8 -165 -10 -22 -2
-74 -7 -116 -10 -42 -4 -85 -8 -95 -10 -11 -2 -53 -7 -94 -11 -41 -3 -82 -8
-90 -11 -9 -2 -40 -6 -70 -9 -30 -2 -66 -7 -80 -10 -14 -3 -41 -7 -60 -10 -19
-3 -46 -7 -60 -10 -14 -3 -44 -8 -67 -10 -24 -2 -47 -6 -52 -9 -4 -3 -23 -8
-42 -10 -19 -3 -45 -8 -59 -11 -14 -3 -36 -7 -50 -10 -14 -2 -47 -9 -75 -15
-27 -6 -63 -13 -80 -16 -51 -10 -60 -12 -62 -14 -4 -3 -11 -5 -58 -15 -56 -13
-55 -12 -57 -15 -4 -2 -26 -8 -63 -15 -16 -3 -41 -10 -55 -15 -14 -5 -52 -16
-85 -24 -33 -9 -89 -25 -125 -36 -36 -12 -72 -23 -80 -25 -8 -2 -28 -8 -43
-14 -16 -6 -32 -9 -37 -6 -5 3 -11 1 -14 -4 -4 -5 -30 -17 -59 -26 -46 -15
-166 -57 -207 -72 -8 -4 -17 -7 -20 -7 -3 -1 -18 -7 -35 -13 -44 -18 -89 -36
-95 -38 -96 -33 -551 -234 -561 -248 -3 -4 -12 -9 -20 -11 -27 -5 -268 -131
-439 -231 -58 -34 -116 -68 -130 -76 -14 -8 -27 -17 -30 -20 -3 -3 -18 -13
-35 -22 -51 -26 -411 -273 -480 -329 -5 -4 -73 -58 -150 -119 -77 -61 -142
-114 -145 -118 -3 -3 -21 -19 -40 -35 -116 -94 -422 -392 -560 -545 -41 -46
-87 -96 -102 -112 -16 -15 -28 -30 -28 -33 0 -3 -14 -19 -30 -36 -17 -17 -30
-35 -30 -41 0 -6 -5 -7 -10 -4 -5 3 -10 -1 -10 -9 0 -9 -4 -16 -10 -16 -5 0
-10 -4 -10 -10 0 -5 -8 -18 -17 -28 -28 -29 -55 -62 -98 -122 -22 -30 -51 -68
-65 -84 -14 -16 -24 -32 -23 -37 2 -5 -1 -9 -7 -9 -5 0 -17 -15 -26 -32 -9
-18 -20 -35 -24 -38 -23 -15 -290 -437 -290 -458 0 -6 -4 -12 -8 -14 -5 -1
-35 -52 -67 -113 -31 -60 -61 -114 -66 -119 -5 -6 -9 -18 -9 -27 0 -10 -3 -19
-7 -21 -8 -3 -17 -21 -86 -168 -42 -91 -51 -113 -49 -122 1 -5 -2 -8 -8 -8 -6
0 -9 -3 -8 -7 1 -5 -5 -21 -12 -38 -7 -16 -14 -32 -15 -35 -5 -14 -18 -47 -25
-65 -5 -11 -22 -56 -39 -100 -39 -106 -43 -118 -47 -130 -2 -5 -22 -64 -44
-130 -39 -113 -44 -130 -54 -172 -2 -10 -11 -40 -20 -68 -16 -54 -37 -131 -42
-155 -1 -8 -14 -66 -28 -128 -14 -62 -28 -129 -31 -150 -3 -20 -8 -50 -11 -67
-10 -54 -14 -79 -19 -120 -3 -22 -7 -49 -10 -61 -2 -11 -7 -45 -11 -75 -3 -30
-8 -65 -10 -79 -2 -14 -6 -52 -9 -85 -3 -33 -7 -69 -10 -80 -18 -85 -27 -643
-12 -840 3 -49 7 -90 7 -90 2 0 7 -44 15 -110 5 -52 18 -134 30 -195 4 -19 8
-44 10 -55 10 -58 41 -186 64 -267 10 -36 17 -69 13 -72 -3 -3 1 -6 8 -6 7 0
11 -3 7 -6 -3 -4 0 -22 8 -40 8 -19 11 -34 8 -34 -3 0 1 -7 8 -17 8 -9 13 -19
13 -22 -1 -6 3 -23 13 -51 4 -8 7 -19 9 -25 12 -42 50 -131 56 -133 4 -2 8
-10 8 -18 0 -17 122 -268 132 -272 5 -2 8 -12 8 -22 0 -10 4 -20 8 -22 4 -1
21 -25 37 -53 27 -48 111 -179 127 -200 5 -5 31 -41 59 -80 29 -38 56 -71 60
-73 5 -2 9 -7 9 -12 0 -9 29 -45 72 -91 14 -16 24 -29 21 -29 -14 0 341 -343
417 -403 47 -37 90 -71 96 -76 15 -12 133 -94 152 -106 9 -6 36 -23 59 -38 24
-15 47 -27 52 -27 5 0 11 -4 13 -9 1 -6 28 -23 58 -40 88 -48 364 -186 380
-189 8 -2 17 -8 18 -13 2 -5 9 -9 17 -9 11 0 60 -19 142 -56 17 -8 36 -14 42
-14 6 0 19 -4 29 -9 15 -9 49 -22 62 -26 3 0 55 -17 115 -37 116 -38 223 -71
290 -89 22 -6 54 -14 70 -19 17 -5 41 -11 55 -14 14 -3 42 -10 63 -15 20 -5
37 -7 37 -4 0 3 7 0 15 -7 9 -7 18 -10 21 -7 3 3 17 2 31 -4 13 -5 39 -11 56
-13 18 -3 43 -8 57 -11 14 -3 38 -8 54 -11 16 -2 33 -7 38 -10 4 -3 29 -7 55
-9 27 -3 59 -7 73 -10 34 -8 57 -12 110 -19 25 -4 63 -9 85 -12 72 -11 89 -13
137 -19 26 -3 62 -7 80 -9 116 -14 148 -18 188 -21 74 -5 191 -15 250 -20 323
-26 1177 -27 1410 -1 19 3 71 7 115 11 44 3 96 8 115 10 19 3 58 7 85 10 28 3
61 7 75 9 69 11 128 18 160 21 19 2 45 6 56 9 21 4 76 14 124 21 14 2 47 8 75
14 27 5 53 7 57 5 5 -3 8 -1 8 3 0 5 12 10 28 11 28 3 67 9 67 12 0 2 19 6 65
14 19 3 50 10 68 15 18 5 35 10 37 10 44 5 85 15 85 21 0 5 8 7 17 6 10 -2 56
8 103 21 47 13 92 26 100 28 8 2 15 4 15 5 0 1 7 3 15 5 8 1 49 13 90 25 41
12 80 23 85 25 6 1 17 5 25 8 22 9 171 59 184 62 6 1 27 8 46 16 19 7 38 12
43 11 4 -1 7 2 7 8 0 6 3 9 8 8 12 -2 66 14 102 32 19 10 37 18 40 18 7 1 60
20 90 33 14 6 39 17 55 24 17 7 79 34 140 61 60 27 112 47 114 46 2 -2 7 0 10
5 9 13 49 33 65 33 8 0 16 3 18 8 4 9 130 72 145 72 6 0 13 3 15 8 2 4 30 21
63 37 32 17 88 47 122 68 35 20 65 37 67 37 3 0 52 29 111 65 58 36 110 65
115 65 6 0 10 5 10 10 0 6 7 10 15 10 8 0 15 5 15 10 0 6 5 10 10 10 6 0 16 5
23 11 7 5 55 38 107 72 52 33 100 65 105 69 34 28 105 78 109 78 3 0 15 8 25
17 11 10 26 23 33 28 128 97 205 157 254 200 12 11 37 31 54 45 18 14 54 46
81 71 27 25 49 44 49 42 0 -19 445 431 561 568 24 28 49 57 54 63 6 6 28 34
50 61 22 28 42 52 45 55 3 3 31 39 63 80 31 41 60 80 64 85 31 39 73 98 102
140 19 28 39 53 45 57 6 4 7 8 3 8 -5 0 4 17 20 38 16 20 60 87 98 147 91 146
91 147 122 202 14 26 29 50 32 53 7 6 32 54 141 270 43 85 88 178 100 205 12
28 35 78 51 113 16 35 29 70 29 78 0 8 5 14 10 14 6 0 9 3 8 8 -1 4 4 23 11
42 8 19 15 38 16 43 1 4 4 10 5 15 1 4 2 10 1 15 0 4 3 7 9 7 5 0 10 6 10 14
0 8 5 27 12 43 6 15 13 33 14 38 2 6 39 115 83 243 43 127 77 232 75 232 -1 0
4 24 13 53 8 28 17 59 18 67 2 8 4 15 5 15 1 0 3 9 5 19 2 11 7 31 10 45 4 14
6 26 5 26 -1 0 4 13 10 29 6 16 13 45 16 65 8 45 12 65 14 69 4 4 22 92 26
127 5 39 26 150 31 165 3 8 7 29 8 45 1 17 3 30 4 30 2 0 4 11 5 25 11 93 23
175 26 175 1 0 3 27 5 60 3 33 7 73 9 90 13 81 21 253 21 475 0 245 -7 361
-30 540 -4 30 -9 66 -11 80 -3 31 -10 65 -29 155 -8 39 -17 81 -19 95 -3 14
-5 25 -7 25 -1 0 -3 9 -5 20 -2 11 -5 27 -7 35 -2 8 -7 29 -11 45 -4 17 -10
37 -13 45 -3 8 -7 20 -9 27 -8 39 -54 173 -96 278 -11 28 -25 63 -31 80 -24
61 -137 283 -185 363 -28 45 -48 82 -46 82 3 0 0 6 -6 13 -33 39 -80 107 -80
116 0 6 -4 11 -8 11 -4 0 -16 15 -27 33 -10 17 -21 34 -24 37 -3 3 -33 39 -66
80 -32 41 -67 82 -77 91 -10 9 -18 19 -18 23 0 12 -271 283 -296 296 -13 7
-21 17 -18 22 3 4 1 8 -3 8 -8 0 -42 28 -98 79 -11 10 -58 47 -105 82 -47 35
-91 70 -98 77 -7 6 -20 12 -28 12 -8 0 -14 5 -14 10 0 6 -8 14 -17 17 -10 4
-23 12 -30 17 -39 35 -48 41 -50 36 -1 -3 -12 3 -23 13 -11 9 -23 17 -26 17
-3 0 -42 22 -87 48 -45 27 -140 77 -212 111 -71 35 -142 69 -157 77 -15 8 -31
15 -35 16 -9 1 -18 4 -128 48 -44 18 -84 33 -90 35 -5 1 -17 5 -25 8 -23 9
-171 59 -184 62 -6 1 -18 4 -26 7 -39 13 -90 29 -145 43 -33 9 -84 23 -112 30
-29 8 -65 17 -80 20 -16 2 -43 9 -61 14 -18 5 -35 10 -37 10 -3 0 -20 3 -38 6
-17 3 -41 8 -52 10 -11 2 -20 4 -20 5 0 2 -68 16 -130 25 -126 20 -158 25
-208 35 -26 6 -51 9 -55 8 -4 -1 -25 1 -47 5 -22 4 -60 9 -85 12 -25 4 -56 8
-70 10 -14 2 -56 7 -95 10 -38 3 -83 8 -100 10 -41 6 -141 14 -250 21 -49 3
-119 8 -155 10 -72 6 -917 14 -922 9z m337 -1642 c28 -1 51 -2 53 -4 1 -1 7
-3 12 -4 6 -1 11 -3 13 -4 1 -2 12 -4 24 -7 35 -6 115 -59 154 -102 57 -62 97
-143 114 -227 2 -11 6 -31 10 -45 6 -25 12 -76 21 -185 5 -73 5 -70 1 -122 -2
-24 1 -43 6 -43 4 0 5 -6 0 -12 -7 -13 -10 -40 -15 -170 -2 -38 -5 -68 -8 -68
-3 0 -5 -12 -5 -27 -1 -50 -19 -188 -39 -298 -4 -16 -8 -43 -11 -60 -3 -16 -7
-40 -9 -51 -2 -12 -7 -37 -10 -55 -3 -19 -8 -45 -11 -59 -3 -14 -7 -37 -10
-52 -2 -15 -6 -35 -9 -45 -3 -10 -7 -29 -10 -43 -6 -31 -5 -28 -55 -240 -23
-96 -44 -184 -46 -194 -2 -10 -9 -33 -15 -51 -6 -18 -13 -42 -15 -55 -2 -13
-9 -37 -14 -54 -6 -17 -12 -42 -15 -56 -3 -14 -12 -50 -21 -80 -9 -30 -18 -64
-19 -75 -2 -11 -11 -39 -19 -62 -9 -24 -14 -43 -11 -43 2 0 -2 -13 -10 -29 -9
-16 -13 -31 -10 -34 3 -3 -2 -22 -10 -42 -9 -21 -18 -47 -21 -59 -14 -64 -30
-112 -39 -118 -6 -4 -8 -8 -4 -8 3 0 -7 -44 -24 -97 -16 -54 -34 -114 -40
-133 -5 -19 -19 -62 -30 -95 -12 -33 -22 -67 -23 -75 -1 -8 -7 -28 -14 -44 -6
-16 -13 -38 -16 -50 -2 -11 -4 -22 -6 -23 -1 -2 -3 -7 -4 -13 -1 -5 -4 -12 -5
-15 -1 -3 -3 -8 -5 -12 -1 -5 -4 -15 -7 -23 -3 -8 -16 -49 -28 -90 -12 -41
-26 -86 -32 -100 -5 -14 -12 -36 -15 -50 -2 -13 -9 -30 -15 -37 -6 -7 -8 -13
-5 -13 2 0 -38 -125 -89 -277 -52 -153 -97 -289 -100 -302 -2 -13 -12 -37 -20
-52 -8 -16 -14 -30 -13 -31 0 -2 -4 -16 -10 -31 -6 -16 -11 -34 -11 -41 0 -7
-3 -16 -7 -20 -5 -4 -8 -11 -9 -14 -1 -15 -28 -97 -34 -102 -3 -3 -6 -9 -7
-15 -5 -25 -39 -110 -46 -113 -4 -2 -5 -7 -2 -12 2 -4 -10 -45 -29 -91 -97
-247 -135 -345 -138 -359 -2 -8 -10 -21 -18 -28 -8 -8 -9 -11 -2 -7 7 4 4 -7
-7 -26 -11 -18 -18 -36 -15 -41 3 -4 0 -8 -5 -8 -6 0 -11 -8 -11 -18 0 -10 -6
-26 -14 -37 -7 -11 -14 -23 -15 -27 -3 -17 -17 -49 -67 -156 -29 -61 -50 -112
-46 -112 4 0 2 -4 -4 -8 -6 -4 -25 -36 -43 -72 -78 -161 -242 -437 -313 -525
-101 -127 -166 -196 -233 -250 -28 -22 -52 -42 -55 -45 -3 -3 -23 -14 -45 -25
-22 -11 -43 -24 -47 -30 -4 -5 -8 -6 -8 -1 0 5 -6 4 -12 -1 -7 -6 -26 -14 -43
-18 -16 -5 -37 -10 -45 -12 -64 -19 -320 3 -328 28 -2 5 -9 9 -16 9 -25 0 -77
32 -120 73 -60 58 -93 135 -122 282 -24 126 -24 425 1 610 3 22 7 65 10 95 2
30 5 55 5 55 3 0 10 40 14 75 2 19 5 35 6 35 1 0 4 18 6 40 3 22 9 58 15 80 5
22 11 57 13 77 3 20 7 45 10 55 3 10 8 34 11 53 3 19 10 51 15 70 5 19 12 50
15 67 3 18 12 63 21 100 9 38 17 75 19 83 2 8 8 35 14 60 7 25 14 56 17 70 3
14 21 86 41 160 19 74 37 145 38 157 2 12 6 27 10 32 3 6 8 19 10 28 1 10 10
44 18 75 8 31 12 59 9 62 -3 3 0 6 7 6 8 0 11 8 8 20 -3 11 0 26 6 33 7 6 14
23 16 37 4 28 9 53 11 60 1 3 2 8 1 13 0 4 4 7 11 7 6 0 9 3 5 6 -3 3 2 29 10
57 8 29 16 57 17 62 3 14 24 85 59 200 17 55 32 105 33 110 2 12 59 198 104
340 17 55 33 105 34 110 1 6 5 16 9 23 5 6 5 17 2 22 -3 6 -1 10 5 10 6 0 9 3
7 8 -3 4 0 18 6 32 5 14 11 30 12 35 4 16 56 178 62 195 8 20 8 21 18 55 4 17
10 35 14 40 3 6 6 15 7 20 1 6 30 91 64 190 34 99 63 185 64 190 2 6 9 24 15
40 7 17 14 37 16 45 2 8 12 39 24 68 11 28 18 52 16 52 -3 0 1 10 10 23 8 13
12 27 8 30 -3 4 -1 7 5 7 7 0 11 3 10 8 -3 10 33 115 43 126 5 6 9 16 9 24 0
8 7 28 15 45 8 18 35 86 60 152 25 66 54 138 65 160 10 22 22 52 25 68 4 15
11 27 16 27 5 0 8 3 7 8 -1 4 7 27 18 52 10 25 18 48 16 53 -1 4 2 7 8 7 6 0
9 3 8 8 -3 12 116 258 185 384 44 79 111 194 137 233 36 55 104 151 116 165 8
8 37 44 66 80 104 130 257 268 343 310 17 8 32 18 35 21 10 12 134 50 172 53
21 2 41 6 45 10 4 3 9 3 12 -1 3 -5 29 -9 56 -10z"/>
</g>
</svg>
